<svg xmlns="http://www.w3.org/2000/svg" xmlns:xlink="http://www.w3.org/1999/xlink" width="105" zoomAndPan="magnify" viewBox="0 0 78.75 30.000001" height="40" preserveAspectRatio="xMidYMid meet" version="1.2"><g id="873343140d"><path style=" stroke:none;fill-rule:nonzero;fill:#4cb249;fill-opacity:1;" d="M 45.691406 5.566406 C 45.914062 5.5625 46.136719 5.566406 46.359375 5.574219 C 46.492188 5.578125 46.492188 5.578125 46.625 5.582031 C 46.71875 5.585938 46.8125 5.589844 46.910156 5.59375 C 46.992188 5.597656 47.074219 5.601562 47.164062 5.605469 C 47.625 5.675781 48.070312 5.835938 48.515625 5.972656 C 48.542969 7 48.566406 8.027344 48.59375 9.085938 C 48.3125 9.085938 48.144531 9.007812 47.886719 8.890625 C 47.050781 8.527344 46.058594 8.453125 45.1875 8.765625 C 44.132812 9.230469 43.523438 9.941406 43.085938 11.003906 C 42.726562 11.988281 42.847656 13.1875 43.28125 14.128906 C 43.8125 15.109375 44.585938 15.683594 45.640625 16.03125 C 45.921875 16.054688 46.207031 16.054688 46.488281 16.058594 C 46.566406 16.058594 46.644531 16.0625 46.722656 16.066406 C 47.441406 16.070312 47.957031 15.851562 48.539062 15.4375 C 48.636719 15.371094 48.636719 15.371094 48.734375 15.304688 C 49.378906 14.769531 49.820312 13.820312 49.953125 13 C 50.007812 12.28125 50.007812 12.28125 49.914062 11.578125 C 49.859375 11.339844 49.863281 11.113281 49.863281 10.871094 C 49.863281 10.792969 49.863281 10.792969 49.863281 10.710938 C 49.863281 10.535156 49.863281 10.363281 49.863281 10.1875 C 49.863281 10.070312 49.863281 9.949219 49.863281 9.828125 C 49.863281 9.574219 49.863281 9.320312 49.863281 9.066406 C 49.863281 8.742188 49.863281 8.417969 49.863281 8.09375 C 49.863281 7.84375 49.863281 7.59375 49.863281 7.34375 C 49.863281 7.226562 49.863281 7.105469 49.863281 6.984375 C 49.863281 6.820312 49.863281 6.652344 49.863281 6.484375 C 49.863281 6.390625 49.863281 6.292969 49.863281 6.195312 C 49.871094 5.972656 49.871094 5.972656 49.953125 5.8125 C 50.242188 5.71875 50.503906 5.722656 50.804688 5.722656 C 50.867188 5.722656 50.925781 5.722656 50.988281 5.722656 C 51.113281 5.722656 51.238281 5.722656 51.367188 5.722656 C 51.558594 5.722656 51.753906 5.722656 51.945312 5.722656 C 52.070312 5.722656 52.191406 5.722656 52.3125 5.722656 C 52.371094 5.722656 52.429688 5.722656 52.488281 5.722656 C 52.898438 5.726562 52.898438 5.726562 52.984375 5.8125 C 52.996094 5.976562 52.996094 6.136719 52.996094 6.300781 C 52.996094 6.351562 52.996094 6.402344 53 6.453125 C 53 6.628906 53 6.800781 53 6.972656 C 53 7.097656 53 7.222656 53 7.34375 C 53 7.683594 53 8.019531 53.003906 8.355469 C 53.003906 8.566406 53.003906 8.777344 53.003906 8.988281 C 53.003906 9.652344 53.003906 10.3125 53.003906 10.972656 C 53.003906 11.734375 53.007812 12.496094 53.007812 13.257812 C 53.011719 13.847656 53.011719 14.4375 53.011719 15.027344 C 53.011719 15.378906 53.011719 15.730469 53.015625 16.082031 C 53.015625 16.414062 53.015625 16.746094 53.015625 17.078125 C 53.015625 17.199219 53.015625 17.316406 53.015625 17.4375 C 53.027344 19.539062 52.476562 21.347656 51.023438 22.902344 C 49.808594 24.089844 48.136719 24.488281 46.480469 24.515625 C 44.628906 24.484375 43.054688 23.980469 41.730469 22.660156 C 41.679688 22.613281 41.628906 22.566406 41.578125 22.515625 C 41.023438 21.949219 40.382812 20.859375 40.367188 20.050781 C 40.371094 19.988281 40.371094 19.929688 40.371094 19.867188 C 40.808594 19.855469 41.246094 19.847656 41.683594 19.84375 C 41.832031 19.839844 41.980469 19.839844 42.132812 19.835938 C 42.34375 19.832031 42.558594 19.828125 42.773438 19.828125 C 42.839844 19.824219 42.90625 19.820312 42.972656 19.820312 C 43.4375 19.820312 43.4375 19.820312 43.683594 20.058594 C 43.722656 20.125 43.761719 20.195312 43.804688 20.265625 C 43.878906 20.347656 43.949219 20.433594 44.023438 20.519531 C 44.203125 20.742188 44.203125 20.742188 44.203125 20.902344 C 45.46875 21.542969 46.484375 21.839844 47.875 21.382812 C 48.617188 21.03125 49.175781 20.515625 49.554688 19.785156 C 49.800781 19.0625 49.84375 18.308594 49.871094 17.550781 C 49.796875 17.617188 49.796875 17.617188 49.71875 17.6875 C 48.476562 18.761719 47.054688 19.234375 45.414062 19.125 C 43.742188 18.933594 42.304688 18.21875 41.222656 16.925781 C 40.398438 15.839844 39.886719 14.535156 39.875 13.167969 C 39.875 13.105469 39.871094 13.046875 39.871094 12.984375 C 39.871094 12.859375 39.871094 12.730469 39.871094 12.605469 C 39.867188 12.476562 39.867188 12.347656 39.863281 12.222656 C 39.828125 10.335938 40.367188 8.589844 41.691406 7.203125 C 42.761719 6.160156 44.214844 5.617188 45.691406 5.566406 Z M 45.691406 5.566406 "/><path style=" stroke:none;fill-rule:nonzero;fill:#4cb248;fill-opacity:1;" d="M 37.191406 6.734375 C 37.894531 7.304688 38.414062 8.078125 38.824219 8.871094 C 38.867188 8.949219 38.867188 8.949219 38.90625 9.027344 C 39.144531 9.507812 39.160156 9.945312 39.019531 10.464844 C 38.761719 11.664062 38.789062 12.976562 39.105469 14.160156 C 39.242188 14.699219 39.167969 15.105469 38.941406 15.605469 C 38.914062 15.660156 38.890625 15.714844 38.863281 15.773438 C 38.144531 17.3125 36.9375 18.511719 35.355469 19.140625 C 34.957031 19.28125 34.5625 19.402344 34.144531 19.464844 C 34.050781 19.480469 34.050781 19.480469 33.953125 19.496094 C 32.082031 19.722656 30.453125 19.230469 28.953125 18.109375 C 28.953125 20.085938 28.953125 22.0625 28.953125 24.097656 C 27.925781 24.097656 26.898438 24.097656 25.839844 24.097656 C 25.839844 18.0625 25.839844 12.03125 25.839844 5.8125 C 26.089844 5.691406 26.351562 5.722656 26.621094 5.722656 C 26.714844 5.722656 26.714844 5.722656 26.808594 5.722656 C 26.9375 5.722656 27.066406 5.722656 27.199219 5.722656 C 27.398438 5.722656 27.597656 5.722656 27.796875 5.722656 C 27.921875 5.722656 28.046875 5.722656 28.175781 5.722656 C 28.261719 5.722656 28.261719 5.722656 28.355469 5.722656 C 28.777344 5.726562 28.777344 5.726562 28.953125 5.8125 C 28.953125 6.128906 28.953125 6.445312 28.953125 6.773438 C 29.363281 6.621094 29.363281 6.621094 29.691406 6.34375 C 31.640625 4.484375 35.273438 5.371094 37.191406 6.734375 Z M 29.726562 9.773438 C 28.972656 10.871094 28.722656 12.011719 28.914062 13.335938 C 29.167969 14.507812 29.796875 15.316406 30.792969 15.953125 C 31.65625 16.507812 32.84375 16.507812 33.835938 16.320312 C 34.125 16.242188 34.371094 16.113281 34.625 15.953125 C 34.6875 15.914062 34.753906 15.871094 34.820312 15.832031 C 35.59375 15.289062 35.988281 14.507812 36.300781 13.636719 C 36.320312 13.582031 36.339844 13.527344 36.359375 13.472656 C 36.65625 12.492188 36.445312 11.394531 36.007812 10.492188 C 35.875 10.253906 35.734375 10.03125 35.582031 9.804688 C 35.527344 9.71875 35.46875 9.632812 35.410156 9.546875 C 34.578125 8.75 33.613281 8.40625 32.472656 8.414062 C 31.375 8.457031 30.425781 8.917969 29.726562 9.773438 Z M 29.726562 9.773438 "/><path style=" stroke:none;fill-rule:nonzero;fill:#61ab5f;fill-opacity:1;" d="M 48.433594 5.972656 C 48.460938 5.972656 48.488281 5.972656 48.515625 5.972656 C 48.542969 7 48.566406 8.027344 48.59375 9.085938 C 48.515625 9.085938 48.4375 9.085938 48.355469 9.085938 C 48.382812 8.058594 48.410156 7.03125 48.433594 5.972656 Z M 48.433594 5.972656 "/><path style=" stroke:none;fill-rule:nonzero;fill:#b0dcad;fill-opacity:1;" d="M 43.246094 10.046875 C 43.324219 10.046875 43.402344 10.046875 43.484375 10.046875 C 43.378906 10.382812 43.25 10.691406 43.085938 11.003906 C 42.992188 10.726562 43.023438 10.65625 43.121094 10.390625 C 43.15625 10.292969 43.15625 10.292969 43.191406 10.195312 C 43.207031 10.144531 43.226562 10.097656 43.246094 10.046875 Z M 43.246094 10.046875 "/></g></svg>